<svg version="1.1" xmlns="http://www.w3.org/2000/svg" xmlns:xlink="http://www.w3.org/1999/xlink" width="48" height="48"><defs><linearGradient x1="16.89446" y1="14.22989" x2="34.64106" y2="37.30563" gradientUnits="userSpaceOnUse" id="color-1"><stop offset="0.5" stop-color="#000000" stop-opacity="0.5"></stop><stop offset="1" stop-color="#000000" stop-opacity="0"></stop></linearGradient><filter id="dropshadow-base"><feColorMatrix type="matrix" values="0 0 0 0 0  0 0 0 0 0  0 0 0 0 0  0 0 0 .8 0"></feColorMatrix> <feOffset dx="0" dy="1"></feOffset> <feGaussianBlur stdDeviation="1"></feGaussianBlur> <feComposite in="SourceGraphic"></feComposite></filter><filter id="dropshadow-banner" x="-10%" y="-10%" width="120%" height="130%"><feColorMatrix type="matrix" values="0 0 0 0 0  0 0 0 0 0  0 0 0 0 0  0 0 0 .4 0"></feColorMatrix> <feOffset dx="0" dy="1"></feOffset> <feGaussianBlur stdDeviation="0.5"></feGaussianBlur> <feComposite in="SourceGraphic"></feComposite></filter></defs><g fill="none" fill-rule="nonzero" stroke="none" stroke-width="none" stroke-linecap="butt" stroke-linejoin="miter" stroke-miterlimit="10" stroke-dasharray="" stroke-dashoffset="0" font-family="none" font-weight="none" font-size="none" text-anchor="none" style="mix-blend-mode: normal"><path d="M2,24c0,-12.15026 9.84974,-22 22,-22c12.15026,0 22,9.84974 22,22c0,12.15026 -9.84974,22 -22,22c-12.15026,0 -22,-9.84974 -22,-22z" id="base 1 5" fill="#1d1d1d" stroke-width="1"></path><path d="M24,14.22989l3.53553,3.53553v0.03446l0.01723,-0.01723l2.44253,2.44253l0.00888,-0.00888v-0.00001l3.53553,3.53553c0.69279,1.09692 1.10136,2.38924 1.10136,3.7837c0,3.92581 -3.17973,7.10554 -7.10554,7.10554v2.66457l-3.53553,-3.53553v-0.03446l-0.01723,0.01723l-2.44252,-2.44252l-0.00889,0.00889l-3.53553,-3.53553c-0.69279,-1.09692 -1.10136,-2.38924 -1.10136,-3.7837c0,-3.92581 3.17973,-7.10554 7.10554,-7.10554zM29.32915,23.99999c0,-0.2911 -0.02361,-0.57618 -0.0689,-0.85375l-1.72471,1.72471l-2.19387,-2.19387c-1.84926,0.83587 -3.13528,2.69629 -3.13528,4.85847c0,0.2911 0.02361,0.57618 0.0689,0.85374l1.72471,-1.72471l2.19388,2.19388c1.84925,-0.83588 3.13527,-2.69629 3.13527,-4.85846z" fill="url(#color-1)" stroke-width="1"></path><path d="M24,18.67085v2.66458l3.55277,-3.55277l-3.55277,-3.55277v2.66458c-3.92581,0 -7.10553,3.17973 -7.10553,7.10553c0,1.39446 0.40857,2.68678 1.10136,3.7837l1.29676,-1.29676c-0.39525,-0.74164 -0.62173,-1.58542 -0.62173,-2.48694c0,-2.94436 2.38479,-5.32915 5.32915,-5.32915zM30.00418,20.2163l-1.29676,1.29676c0.39525,0.74164 0.62173,1.58542 0.62173,2.48694c0,2.94436 -2.38479,5.32915 -5.32915,5.32915v-2.66458l-3.55277,3.55277l3.55277,3.55277v-2.66458c3.92581,0 7.10553,-3.17973 7.10553,-7.10553c0,-1.39446 -0.40857,-2.68678 -1.10136,-3.7837z" fill="none" stroke-width="0"></path><path d="M18.67085,24c0,0.90151 0.22649,1.7453 0.62173,2.48694l-1.29676,1.29676c-0.69279,-1.09692 -1.10136,-2.38924 -1.10136,-3.7837c0,-3.92581 3.17973,-7.10553 7.10553,-7.10553v-2.66458l3.55277,3.55277l-3.55277,3.55277v-2.66458c-2.94436,0 -5.32915,2.38479 -5.32915,5.32915zM31.10553,24c0,3.92581 -3.17973,7.10553 -7.10553,7.10553v2.66458l-3.55277,-3.55277l3.55277,-3.55277v2.66458c2.94436,0 5.32915,-2.38479 5.32915,-5.32915c0,-0.90151 -0.22649,-1.7453 -0.62173,-2.48694l1.29676,-1.29676c0.69279,1.09692 1.10136,2.38924 1.10136,3.7837z" fill="#ffffff" stroke-width="0"></path><path d="M2,24c0,-12.15026 9.84974,-22 22,-22c12.15026,0 22,9.84974 22,22c0,12.15026 -9.84974,22 -22,22c-12.15026,0 -22,-9.84974 -22,-22z" id="base 1 1 1" fill="none" stroke-width="1"></path><g fill="#000000" stroke-width="1" font-family="Roboto, sans-serif" font-weight="400" font-size="14" text-anchor="start"></g><rect x="2" y="2" width="44" height="22" fill="none" stroke-width="1"></rect><path d="M2,24v-22h44v22z" fill="none" stroke-width="1"></path><path d="M2,24v-22h44v22z" fill="none" stroke-width="1"></path><path d="M2,24v-22h44v22z" fill="none" stroke-width="1"></path><path d="M2,24v-22h44v22z" fill="none" stroke-width="1"></path></g></svg>